<svg id="Layer_1" data-name="Layer 1" xmlns="http://www.w3.org/2000/svg" viewBox="0 0 272.74 102.84"><defs><style>.cls-1{fill:#fff;}.cls-2{fill:none;stroke:#fff;stroke-miterlimit:10;stroke-width:1.5px;}</style></defs><path class="cls-1" d="M131.2,23.71h3.69v6.94a2.08,2.08,0,0,0,4.16,0V23.71h3.68v7.05c0,3-1.7,5.17-5.75,5.17s-5.78-2.18-5.78-5.15Z"/><path class="cls-1" d="M150,26.88h-3.22V23.71h10.06v3.17h-3.21v8.83H150Z"/><path class="cls-1" d="M170.64,26.88h-3.22V23.71h10.06v3.17h-3.2v8.83h-3.64Z"/><path class="cls-1" d="M184.68,30.94l-4.5-7.23h4.08l2.23,4.05,2.2-4.05h4.08l-4.46,7.23v4.77h-3.63Z"/><path class="cls-1" d="M196.12,23.71h3.64v8.83h4.55v3.17h-8.19Z"/><path class="cls-1" d="M208.47,23.71h9.1v3H212.1v1.41h5.34v3H212.1v1.53h5.47v3h-9.1Z"/><path class="cls-1" d="M226.84,31.86h-1.32v3.85h-3.63v-12h6.4a4,4,0,0,1,4.32,4.12,3.84,3.84,0,0,1-2.16,3.63l2.18,4.25h-4.14Zm.9-5.13h-2.22v2.11h2.22a1.06,1.06,0,1,0,0-2.11Z"/><path class="cls-1" d="M131,51.31a6,6,0,0,1,6.21-6.21,5.48,5.48,0,0,1,4.91,2.7l-1.8.92A3.6,3.6,0,0,0,137.18,47a4.35,4.35,0,0,0,0,8.67,3.57,3.57,0,0,0,3.11-1.75l1.8.92a5.5,5.5,0,0,1-4.91,2.7A6,6,0,0,1,131,51.31Z"/><path class="cls-1" d="M152.07,45.1a6.21,6.21,0,1,1-6.13,6.21A6,6,0,0,1,152.07,45.1Zm0,1.88c-2.43,0-4,1.85-4,4.33s1.54,4.34,4,4.34,4-1.87,4-4.34S154.48,47,152.07,47Z"/><path class="cls-1" d="M162.94,45.3h2.11V55.45h5.29V57.3h-7.4Z"/><path class="cls-1" d="M174.94,45.3h2.11V55.45h5.29V57.3h-7.4Z"/><path class="cls-1" d="M187,45.3h8.22v1.85h-6.12v3.12h6v1.85h-6v3.33h6.12V57.3H187Z"/><path class="cls-1" d="M205.78,45.1a5.63,5.63,0,0,1,4.84,2.51l-1.72,1a3.83,3.83,0,0,0-3.12-1.6,4.35,4.35,0,0,0,0,8.68,4.37,4.37,0,0,0,2.85-1.08V52.71h-3.58V50.86h5.68v4.5a6.52,6.52,0,0,1-4.95,2.17,6.22,6.22,0,1,1,0-12.43Z"/><path class="cls-1" d="M215.63,45.3h8.22v1.85h-6.12v3.12h6v1.85h-6v3.33h6.12V57.3h-8.22Z"/><path class="cls-1" d="M241.63,45.1a6.21,6.21,0,1,1-6.14,6.21A6,6,0,0,1,241.63,45.1Zm0,1.88c-2.43,0-4,1.85-4,4.33s1.55,4.34,4,4.34,4-1.87,4-4.34S244,47,241.63,47Z"/><path class="cls-1" d="M252.5,45.3h8.22v1.85H254.6v3.12h6v1.85h-6V57.3h-2.1Z"/><path class="cls-1" d="M131.51,66.9h8.22v1.85h-6.12v3.11h6v1.85h-6V77h6.12v1.85h-8.22Z"/><path class="cls-1" d="M146.69,70.15v8.74h-2.1v-12h2.16l6.13,8.5V66.9H155v12h-2Z"/><path class="cls-1" d="M166,66.7a5.63,5.63,0,0,1,4.84,2.5l-1.73,1a3.81,3.81,0,0,0-3.11-1.6,4.35,4.35,0,0,0,0,8.69,4.42,4.42,0,0,0,2.84-1.08V74.31h-3.58V72.45H171V77A6.53,6.53,0,0,1,166,79.13a6.22,6.22,0,1,1,0-12.43Z"/><path class="cls-1" d="M175.84,66.9H178v12h-2.11Z"/><path class="cls-1" d="M185.31,70.15v8.74H183.2v-12h2.16l6.14,8.5V66.9h2.1v12h-2Z"/><path class="cls-1" d="M198.86,66.9h8.22v1.85H201v3.11h6v1.85h-6V77h6.12v1.85h-8.22Z"/><path class="cls-1" d="M211.94,66.9h8.22v1.85H214v3.11h6v1.85h-6V77h6.12v1.85h-8.22Z"/><path class="cls-1" d="M229.21,74.41h-2.09v4.48H225v-12h5.27a3.63,3.63,0,0,1,3.92,3.75,3.36,3.36,0,0,1-2.84,3.53l2.93,4.71h-2.43Zm.79-5.66h-2.88v3.81H230a1.91,1.91,0,1,0,0-3.81Z"/><path class="cls-1" d="M239,66.9h2.1v12H239Z"/><path class="cls-1" d="M248.48,70.15v8.74h-2.1v-12h2.16l6.13,8.5V66.9h2.11v12h-2Z"/><path class="cls-1" d="M267.79,66.7a5.63,5.63,0,0,1,4.84,2.5l-1.73,1a3.81,3.81,0,0,0-3.11-1.6,4.35,4.35,0,0,0,0,8.69,4.42,4.42,0,0,0,2.84-1.08V74.31h-3.58V72.45h5.69V77a6.54,6.54,0,0,1-4.95,2.18,6.22,6.22,0,1,1,0-12.43Z"/><line class="cls-2" x1="103.41" x2="103.41" y2="102.84"/><path class="cls-1" d="M9.59,96.63,5.11,89.89H7.43l3.18,4.94,3.15-4.94h2.31l-4.46,6.74v4.79h-2Z"/><path class="cls-1" d="M19.92,89.89h7.9v1.78H22v3H27.7v1.78H22v3.2h5.87v1.78h-7.9Z"/><path class="cls-1" d="M39.8,99.21H34.34l-.85,2.21H31.28l4.53-11.53h2.52l4.53,11.53H40.65Zm-4.89-1.78h4.32L37.07,91.6Z"/><path class="cls-1" d="M50.74,97.12h-2v4.3h-2V89.89h5.07a3.5,3.5,0,0,1,3.76,3.61,3.22,3.22,0,0,1-2.73,3.39l2.82,4.53H53.3Zm.76-5.45H48.73v3.67H51.5a1.84,1.84,0,1,0,0-3.67Z"/><path class="cls-1" d="M60.54,98.24a5,5,0,0,0,3.64,1.59c1.66,0,2.32-.81,2.32-1.57,0-1-1.23-1.35-2.63-1.71-1.88-.47-4.09-1-4.09-3.46,0-1.9,1.67-3.37,4.2-3.37a6,6,0,0,1,4.32,1.61l-1.16,1.5a4.69,4.69,0,0,0-3.34-1.31c-1.19,0-1.95.57-1.95,1.43s1.18,1.19,2.54,1.54c1.9.48,4.17,1.07,4.17,3.58,0,1.92-1.35,3.56-4.46,3.56a6.17,6.17,0,0,1-4.69-1.83Z"/><path class="cls-1" d="M47.86,18.85c7.62,2.36,13.24,3.59,17.1,3.59,4.29,0,7.36-1.4,8.15-4.29h1.14c-1.93,7.36-6,10.52-13.59,10.52a47.21,47.21,0,0,1-12.54-1.58L45.49,47c3.15-5.18,7.19-7.72,12.8-7.72,10.44,0,18.59,8,18.59,17.89,0,11-9.82,19.82-21.13,19.82-8.07,0-16.84-5.09-16.84-12.37,0-3.77,2.72-6.75,6.14-6.75A5.24,5.24,0,0,1,50.31,63c0,5.08-5.7,4.73-5.7,7.54,0,3.33,6.84,5.26,11,5.26,8.16,0,11.49-5.79,11.49-17.71,0-10-2.19-17.63-9.91-17.63-5.18,0-10.09,4.3-11.84,9.65-.35,1.22-.44,1.4-1,1.4a.46.46,0,0,1-.53-.53,3.17,3.17,0,0,1,.09-.87Z"/><path class="cls-1" d="M30.43,67.61H7c3.94-4.83,11.13-11.84,20-19,6.14-5,10.44-8.86,10.44-15.18,0-8.5-8.42-15.52-17.72-15.52S2.63,24.2,2.63,33.67c0,4.65,2.19,9.12,6.67,9.12a5.13,5.13,0,0,0,5.34-5.26c0-2.63-2-5.35-4.82-5.35s-3.59,3-4.65,3c-.79,0-1.66-.79-1.49-3.16.62-6.84,6.84-13,13.77-13S27.8,25.16,27.8,32.7c0,9.56-3.42,14.74-10.7,22.45C9,63.75,2.81,70.24,0,75.15H34.55l1.29-7.55Z"/><path class="cls-1" d="M.39,4.46A3.16,3.16,0,0,1,3.63,1.21,2.86,2.86,0,0,1,6.2,2.62l-.94.48a1.87,1.87,0,0,0-1.63-.91A2.14,2.14,0,0,0,1.52,4.46,2.14,2.14,0,0,0,3.63,6.73a1.86,1.86,0,0,0,1.63-.92l.94.48A2.86,2.86,0,0,1,3.63,7.71,3.16,3.16,0,0,1,.39,4.46Z"/><path class="cls-1" d="M8.51,1.31h4.3v1H9.61V3.91h3.13v1H9.61V6.62h3.2v1H8.51Z"/><path class="cls-1" d="M15.36,1.31h1.1V6.62h2.77v1H15.36Z"/><path class="cls-1" d="M21.64,1.31h4.3v1h-3.2V3.91h3.14v1H22.74V6.62h3.2v1h-4.3Z"/><path class="cls-1" d="M28.49,1.31h3.09a1.61,1.61,0,0,1,1.79,1.6,1.41,1.41,0,0,1-1.09,1.44A1.56,1.56,0,0,1,33.49,5.9a1.65,1.65,0,0,1-1.83,1.69H28.49Zm2.86,2.6a.8.8,0,0,0,.89-.81.8.8,0,0,0-.89-.82H29.59V3.91Zm0,2.71a.85.85,0,0,0,1-.87.87.87,0,0,0-1-.87H29.59V6.62Z"/><path class="cls-1" d="M38.2,5.25H37.11V7.59H36V1.31h2.76a1.91,1.91,0,0,1,2,2,1.77,1.77,0,0,1-1.49,1.85l1.54,2.46H39.6Zm.42-3H37.11v2h1.51a1,1,0,1,0,0-2Z"/><path class="cls-1" d="M47.32,6.39h-3l-.46,1.2H42.68l2.47-6.28h1.37L49,7.59H47.78Zm-2.66-1H47L45.84,2.24Z"/><path class="cls-1" d="M52,2.28h-1.9v-1H55v1h-1.9V7.59H52Z"/><path class="cls-1" d="M57.33,1.31h1.1V7.59h-1.1Z"/><path class="cls-1" d="M62.29,3V7.59h-1.1V1.31h1.12l3.22,4.46V1.31h1.1V7.59H65.56Z"/><path class="cls-1" d="M72.39,1.21a3,3,0,0,1,2.54,1.31L74,3a2,2,0,0,0-1.63-.84,2.15,2.15,0,0,0-2.16,2.27,2.16,2.16,0,0,0,2.16,2.28,2.33,2.33,0,0,0,1.49-.57v-1H72v-1h3V6.58a3.42,3.42,0,0,1-2.59,1.14A3.18,3.18,0,0,1,69.1,4.46,3.17,3.17,0,0,1,72.39,1.21Z"/></svg>